<svg width="57" height="56" viewBox="0 0 57 56" fill="none" xmlns="http://www.w3.org/2000/svg">
<rect y="3.5" width="52" height="52" rx="3" fill="white"/>
<path d="M26 23.94V27.27" stroke="#4E7D64" stroke-width="1.5" stroke-miterlimit="10" stroke-linecap="round"/>
<path d="M26.02 19.5C22.34 19.5 19.36 22.48 19.36 26.16V28.26C19.36 28.94 19.08 29.96 18.73 30.54L17.46 32.66C16.68 33.97 17.22 35.43 18.66 35.91C23.44 37.5 28.61 37.5 33.39 35.91C34.74 35.46 35.32 33.88 34.59 32.66L33.32 30.54C32.97 29.96 32.69 28.93 32.69 28.26V26.16C32.68 22.5 29.68 19.5 26.02 19.5Z" stroke="#4E7D64" stroke-width="1.5" stroke-miterlimit="10" stroke-linecap="round"/>
<path d="M29.33 36.32C29.33 38.15 27.83 39.65 26 39.65C25.09 39.65 24.25 39.27 23.65 38.67C23.05 38.07 22.67 37.23 22.67 36.32" stroke="#4E7D64" stroke-width="1.5" stroke-miterlimit="10"/>
<circle cx="52" cy="5.39648" r="5" fill="#FFBC0F"/>
</svg>
